<svg width="64" height="64" viewBox="0 0 64 64" fill="none" xmlns="http://www.w3.org/2000/svg">
<path d="M50.9253 49.5555C55.54 44.6104 58.3768 37.9749 58.3768 30.6884C58.3768 15.4258 45.9511 3 30.6884 3C15.4258 3 3 15.4258 3 30.6884C3 45.9511 15.4258 58.3769 30.6884 58.3769C37.9748 58.3769 44.6103 55.54 49.5554 50.9253L59.6301 61L61 59.6302L50.9253 49.5555ZM30.6884 56.4338C16.4945 56.4338 4.94305 44.8824 4.94305 30.6884C4.94305 16.4945 16.4945 4.94305 30.6884 4.94305C44.8824 4.94305 56.4338 16.4945 56.4338 30.6884C56.4338 44.8824 44.8824 56.4338 30.6884 56.4338Z" fill="#091A23"/>
<path d="M35.109 41.7444L27.57 35.002L16.8735 46.0385L18.2725 47.3987L27.6672 37.7029L35.2062 44.4452L47.4182 31.8543L46.0192 30.4941L35.109 41.7444Z" fill="#091A23"/>
<path d="M31 31.52V20H29V29.75L31 31.52Z" fill="#091A23"/>
<path d="M40.5 29.11V13H38.5V31.15L40.5 29.11Z" fill="#091A23"/>
<path d="M20.5 34.8V24H18.5V36.85L20.5 34.8Z" fill="#091A23"/>
</svg>
