<svg width="64" height="64" viewBox="0 0 64 64" fill="none" xmlns="http://www.w3.org/2000/svg">
<path d="M56.6981 58H8.30189C5.92509 58 4 56.0608 4 53.6667V10.3333C4 7.93917 5.92509 6 8.30189 6H56.6981C59.0749 6 61 7.93917 61 10.3333V53.6667C61 56.0608 59.0749 58 56.6981 58ZM8.30189 8.16667C7.11887 8.16667 6.15094 9.14167 6.15094 10.3333V53.6667C6.15094 54.8583 7.11887 55.8333 8.30189 55.8333H56.6981C57.8811 55.8333 58.8491 54.8583 58.8491 53.6667V10.3333C58.8491 9.14167 57.8811 8.16667 56.6981 8.16667H8.30189Z" fill="#091A23"/>
<path d="M14 13H10V15H14V13Z" fill="#091A23"/>
<path d="M24 13H20V15H24V13Z" fill="#091A23"/>
<path d="M55 20H10V22H55V20Z" fill="#091A23"/>
<path d="M16.4753 48L15 46.4034L22.8323 39L15 31.5966L16.4753 30L26 39L16.4753 48Z" fill="#091A23"/>
<path d="M45 47H25V49H45V47Z" fill="#091A23"/>
</svg>
