<svg width="64" height="64" viewBox="0 0 64 64" fill="none" xmlns="http://www.w3.org/2000/svg">
<path d="M24.5 21.0002V56.0002H22.5V21.0002H24.5Z" fill="white"/>
<path d="M18 26.5V28.5H12V26.5H18Z" fill="white"/>
<path d="M18 32V34H12V32H18Z" fill="white"/>
<path d="M18 38V40H12V38H18Z" fill="white"/>
<path d="M33.4287 29.4298C37.3344 25.5241 43.6646 25.5241 47.5703 29.4298L47.9258 29.8028C51.4727 33.728 51.3538 39.7869 47.5703 43.5704C43.7866 47.354 37.7276 47.4722 33.8017 43.9249L33.4287 43.5704C29.5242 39.6648 29.524 33.3346 33.4287 29.4298ZM46.1562 30.8439C43.0315 27.7192 37.9675 27.7192 34.8428 30.8439C31.7193 33.9675 31.719 39.0316 34.8428 42.1564L35.1416 42.4405C38.2824 45.278 43.1293 45.1832 46.1562 42.1564C49.1834 39.1292 49.2783 34.2815 46.4404 31.1417L46.1562 30.8439Z" fill="white"/>
<path d="M52.4969 46.7239L51.0829 48.1379L46.2098 43.2649L47.6239 41.8508L52.4969 46.7239Z" fill="white"/>
<path d="M56.9745 19.5V21.5H6.9696V19.5H56.9745Z" fill="white"/>
<path d="M56.4858 10.5C56.4858 9.94772 56.0381 9.5 55.4858 9.5H8.48584C7.93356 9.5 7.48584 9.94772 7.48584 10.5V54.5C7.48584 55.0523 7.93356 55.5 8.48584 55.5H55.4858C56.0381 55.5 56.4858 55.0523 56.4858 54.5V10.5ZM58.4858 54.5C58.4858 56.1569 57.1427 57.5 55.4858 57.5H8.48584C6.82899 57.5 5.48584 56.1569 5.48584 54.5V10.5C5.48584 8.84315 6.82899 7.5 8.48584 7.5H55.4858C57.1427 7.5 58.4858 8.84315 58.4858 10.5V54.5Z" fill="white"/>
<path d="M16 13.5V15.5H12V13.5H16Z" fill="white"/>
<path d="M24 13.5V15.5H20V13.5H24Z" fill="white"/>
</svg>
