<svg width="64" height="64" viewBox="0 0 64 64" fill="none" xmlns="http://www.w3.org/2000/svg">
<path d="M22.56 34.8997L21.15 33.4797L26.07 28.5697C26.26 28.3797 26.36 28.1297 26.36 27.8597C26.36 27.5897 26.26 27.3397 26.07 27.1497L24.74 25.8197C24.35 25.4297 23.72 25.4297 23.33 25.8197L18.41 30.7397L17 29.3297L21.92 24.4097C23.09 23.2397 24.99 23.2397 26.15 24.4097L27.48 25.7397C28.05 26.3097 28.36 27.0597 28.36 27.8597C28.36 28.6597 28.05 29.4197 27.48 29.9797L22.56 34.8897V34.8997Z" fill="#091A23"/>
<path d="M34.4301 46.7599L33.0201 45.3499L37.9401 40.4299C38.3301 40.0399 38.3301 39.4099 37.9401 39.0099L36.6201 37.6999C36.2401 37.3199 35.5801 37.3199 35.2001 37.6999L30.2901 42.6199L28.8701 41.2099L33.7801 36.2899C34.9101 35.1599 36.8901 35.1599 38.0301 36.2899L39.3601 37.6099C40.5301 38.7899 40.5201 40.6899 39.3601 41.8599L34.4401 46.7799L34.4301 46.7599Z" fill="#091A23"/>
<path d="M14.4464 34.1581L13.0317 35.5718L28.4484 50.9992L29.8631 49.5854L14.4464 34.1581Z" fill="#091A23"/>
<path d="M40.84 52.8499L26.96 38.9699L14.32 26.3299L11.17 23.1899L9.76 24.5999L12.91 27.7499L9.05 31.6199C6.41 34.2599 4.95 37.7699 4.95 41.5099C4.95 45.2499 6.41 48.7699 9.05 51.4199L10.07 52.4399L4 58.5099L5.41 59.9199L11.47 53.8599L12.6 54.9999C15.33 57.7299 18.91 59.0899 22.5 59.0899C26.09 59.0899 29.67 57.7299 32.4 54.9999L36.27 51.1299L39.42 54.2799L40.83 52.8699L40.84 52.8499ZM34.86 49.7099L31 53.5699C26.32 58.2399 18.7 58.2399 14.02 53.5699L10.46 49.9999C8.19 47.7299 6.94 44.7099 6.94 41.5099C6.94 38.3099 8.19 35.2999 10.46 33.0399L14.32 29.1699L24.9 39.7499L34.86 49.7099Z" fill="#091A23"/>
<path d="M53.03 11.5898L59.2 5.41977L57.79 4.00977L51.62 10.1798L50.5 9.05977C45.04 3.59977 36.16 3.59977 30.7 9.05977L26.84 12.9198L23.69 9.76977L22.28 11.1798L25.43 14.3298L48.79 37.6998L51.94 40.8498L53.35 39.4398L50.2 36.2898L54.06 32.4298C56.71 29.7798 58.16 26.2598 58.16 22.5198C58.16 18.7798 56.7 15.2698 54.06 12.6298L53.03 11.5898ZM52.65 30.9998L48.79 34.8598L28.26 14.3198L32.12 10.4598C34.39 8.18977 37.4 6.93977 40.61 6.93977C43.82 6.93977 46.83 8.18977 49.1 10.4598L52.66 14.0298C54.93 16.2898 56.18 19.2998 56.18 22.4998C56.18 25.7098 54.93 28.7198 52.66 30.9898L52.65 30.9998Z" fill="#091A23"/>
</svg>
