<svg width="64" height="64" viewBox="0 0 64 64" fill="none" xmlns="http://www.w3.org/2000/svg">
<path d="M26.1017 26H3V28H26.1017V26Z" fill="white"/>
<path d="M30.0339 42H11.356V44H30.0339V42Z" fill="white"/>
<path d="M23.1526 34H5.45764V36H23.1526V34Z" fill="white"/>
<path d="M32 34H26.1017V36H32V34Z" fill="white"/>
<path d="M38.4589 27V35.29L47.6071 43.43L48.9354 41.93L40.4563 34.39V27H38.4589Z" fill="white"/>
<path d="M40.3964 13.93V10H44.4512V8H34.464V10H38.5188V13.91C32.107 14.19 26.4143 17.29 22.6492 22H25.3058C28.8712 18.24 33.8848 15.88 39.4576 15.88C50.2338 15.88 58.9926 24.65 58.9926 35.44C58.9926 46.23 50.2338 55 39.4576 55C33.4553 55 28.0922 52.27 24.5068 48H22C25.915 53.44 32.2768 57 39.4676 57C51.3424 57 61 47.33 61 35.44C61 23.55 51.8318 14.43 40.3964 13.93Z" fill="white"/>
</svg>
