<svg width="64" height="64" viewBox="0 0 64 64" fill="none" xmlns="http://www.w3.org/2000/svg">
<path d="M61 44H33V46H61V44Z" fill="#091A23"/>
<path d="M61 53H45V55H61V53Z" fill="#091A23"/>
<path d="M23.9451 41C22.0805 41 20.5217 42.2555 20.058 43.9586H3V45.9051H20.0185C20.4329 47.6764 22.0312 49 23.9451 49C26.1847 49 28 47.2092 28 45C28 42.7908 26.1847 41 23.9451 41ZM23.9451 47.0438C22.8007 47.0438 21.8733 46.1192 21.8733 44.9903C21.8733 43.8613 22.8007 42.9367 23.9451 42.9367C25.0896 42.9367 26.0268 43.8613 26.0268 44.9903C26.0268 46.1192 25.0896 47.0438 23.9451 47.0438Z" fill="#091A23"/>
<path d="M35.9176 50C34.0204 50 32.4311 51.2944 31.9842 53.0268H3V54.9732H31.9842C32.4311 56.7056 34.0204 58 35.9176 58C38.1723 58 40 56.2092 40 54C40 51.7908 38.1723 50 35.9176 50ZM35.9176 56.0438C34.7654 56.0438 33.8317 55.1192 33.8317 53.9903C33.8317 52.8613 34.7654 51.9367 35.9176 51.9367C37.0698 51.9367 38.0134 52.8613 38.0134 53.9903C38.0134 55.1192 37.0698 56.0438 35.9176 56.0438Z" fill="#091A23"/>
<path d="M45.8076 11.7233C46.0881 11.1234 46.499 10.5826 47 10.14C42.6311 7.51441 37.5206 6 32.0594 6C16.0367 6 3 19.0102 3 35H5.0041C5.0041 20.0919 17.1389 7.96677 32.0594 7.96677C37.0697 7.96677 41.7793 9.33367 45.8076 11.7233Z" fill="#091A23"/>
<path d="M54.3985 16C54.0367 16.5636 53.5575 17.0466 53 17.4089C56.7751 22.1992 59.044 28.3279 59.044 35H61C61 27.7744 58.5257 21.1525 54.3985 16Z" fill="#091A23"/>
<path d="M56 9.42889L54.6254 8L53.1213 9.42889L50.3223 12.0783L48.868 13.4576L46.2483 15.9482L34.7037 26.8931C34.0363 26.4763 33.2494 26.2282 32.4027 26.2282C29.9723 26.2282 28 28.1929 28 30.6141C28 33.0353 29.9723 35 32.4027 35C34.8332 35 36.8054 33.0353 36.8054 30.6141C36.8054 29.7607 36.5464 28.9669 36.1181 28.2922L47.5631 17.4366L50.392 14.7475L51.8463 13.3782L54.5457 10.8082L56 9.42889ZM32.4027 33.0154C31.0779 33.0154 29.9922 31.9338 29.9922 30.6141C29.9922 29.2944 31.0779 28.2128 32.4027 28.2128C33.7275 28.2128 34.8132 29.2845 34.8132 30.6141C34.8132 31.9438 33.7275 33.0154 32.4027 33.0154Z" fill="#091A23"/>
</svg>
