<svg width="64" height="64" viewBox="0 0 64 64" fill="none" xmlns="http://www.w3.org/2000/svg">
<path fill-rule="evenodd" clip-rule="evenodd" d="M3 26H6.92886C9.31633 26 11 28.2017 11 30.582V45.418C11 47.7983 9.31633 50 6.92886 50H3V26ZM5 28V48H6.92886C7.93396 48 9 46.9937 9 45.418V30.582C9 29.0063 7.93396 28 6.92886 28H5Z" fill="white"/>
<path fill-rule="evenodd" clip-rule="evenodd" d="M53 30.582C53 28.2017 54.6837 26 57.0711 26H61V50H57.0711C54.6837 50 53 47.7983 53 45.418V30.582ZM57.0711 28C56.066 28 55 29.0063 55 30.582V45.418C55 46.9937 56.066 48 57.0711 48H59V28H57.0711Z" fill="white"/>
<path fill-rule="evenodd" clip-rule="evenodd" d="M42.3946 32H54V30H40.9444C41.4932 30.6132 41.9799 31.2832 42.3946 32ZM23.0556 30H10V32H21.6054C22.0201 31.2832 22.5068 30.6132 23.0556 30ZM40.9444 46C41.4932 45.3868 41.9799 44.7168 42.3946 44H54V46H40.9444ZM23.0556 46H10V44H21.6054C22.0201 44.7168 22.5068 45.3868 23.0556 46Z" fill="white"/>
<path fill-rule="evenodd" clip-rule="evenodd" d="M32 48C37.5228 48 42 43.5228 42 38C42 32.4772 37.5228 28 32 28C26.4772 28 22 32.4772 22 38C22 43.5228 26.4772 48 32 48ZM32 50C38.6274 50 44 44.6274 44 38C44 31.3726 38.6274 26 32 26C25.3726 26 20 31.3726 20 38C20 44.6274 25.3726 50 32 50Z" fill="white"/>
<path fill-rule="evenodd" clip-rule="evenodd" d="M33 21V24H31V21H33Z" fill="white"/>
<path fill-rule="evenodd" clip-rule="evenodd" d="M41 17H23C22.4477 17 22 17.4477 22 18C22 18.5523 22.4477 19 23 19H41C41.5523 19 42 18.5523 42 18C42 17.4477 41.5523 17 41 17ZM23 15C21.3431 15 20 16.3431 20 18C20 19.6569 21.3431 21 23 21H41C42.6569 21 44 19.6569 44 18C44 16.3431 42.6569 15 41 15H23Z" fill="white"/>
</svg>
