<svg width="64" height="64" viewBox="0 0 64 64" fill="none" xmlns="http://www.w3.org/2000/svg">
<path d="M48.9438 30.255V57.0341C48.9438 58.1247 48.0515 59.017 46.9609 59.017H6.96569C5.87509 59.017 4.98278 58.1247 4.98278 57.0341V25.3076C4.98278 24.217 5.87509 23.3247 6.96569 23.3247H36.0351C35.6286 22.6902 35.2717 22.0358 34.9742 21.3418H6.96569C4.78449 21.3418 2.99988 23.1165 2.99988 25.3076V57.0341C2.99988 59.2252 4.78449 60.9999 6.96569 60.9999H46.9609C49.152 60.9999 50.9267 59.2252 50.9267 57.0341V30.0864C50.2823 30.1856 49.618 30.245 48.9438 30.255Z" fill="#163341"/>
<path d="M41.8646 29.9575C39.4355 29.9575 37.4526 31.9404 37.4526 34.3695C37.4526 35.5989 37.9583 36.7093 38.7712 37.5124L32.4656 43.8081C31.9005 43.5404 31.2659 43.3818 30.6017 43.3818C30.3736 43.3818 30.1456 43.4115 29.9275 43.4512L26.1996 36.9175L24.4745 37.8991L28.0635 44.1948C26.9333 44.9979 26.1798 46.3066 26.1798 47.7938C26.1798 50.2327 28.1627 52.2057 30.5918 52.2057C33.0208 52.2057 35.0037 50.2228 35.0037 47.7938C35.0037 46.7527 34.627 45.8009 34.0222 45.0474L40.5261 38.5534C40.9524 38.6922 41.3986 38.7815 41.8646 38.7815C44.2936 38.7815 46.2765 36.7985 46.2765 34.3695C46.2765 31.9404 44.2936 29.9575 41.8646 29.9575ZM30.6017 50.2228C29.2632 50.2228 28.1726 49.1322 28.1726 47.7938C28.1726 46.4553 29.2632 45.3647 30.6017 45.3647C31.9401 45.3647 33.0307 46.4553 33.0307 47.7938C33.0307 49.1322 31.9401 50.2228 30.6017 50.2228ZM41.8646 36.7985C40.5261 36.7985 39.4355 35.7079 39.4355 34.3695C39.4355 33.031 40.5261 31.9404 41.8646 31.9404C43.203 31.9404 44.2936 33.031 44.2936 34.3695C44.2936 35.7079 43.203 36.7985 41.8646 36.7985Z" fill="#163341"/>
<path d="M23.7509 29.9575C21.3219 29.9575 19.339 31.9404 19.339 34.3695C19.339 35.5989 19.8446 36.7192 20.6675 37.5223L14.3619 43.818C13.7868 43.5503 13.1622 43.3818 12.488 43.3818C10.059 43.3818 8.07605 45.3647 8.07605 47.7938C8.07605 50.2228 10.059 52.2057 12.488 52.2057C14.9171 52.2057 16.9 50.2228 16.9 47.7938C16.9 46.7527 16.5232 45.8109 15.9284 45.0573L22.4323 38.5534C22.8487 38.6823 23.2949 38.7815 23.7509 38.7815C26.18 38.7815 28.1629 36.7985 28.1629 34.3695C28.1629 31.9404 26.18 29.9575 23.7509 29.9575ZM12.488 50.2228C11.1496 50.2228 10.059 49.1322 10.059 47.7938C10.059 46.4553 11.1496 45.3647 12.488 45.3647C13.8265 45.3647 14.9171 46.4553 14.9171 47.7938C14.9171 49.1322 13.8265 50.2228 12.488 50.2228ZM23.7509 36.7985C22.4125 36.7985 21.3219 35.7079 21.3219 34.3695C21.3219 33.031 22.4125 31.9404 23.7509 31.9404C25.0894 31.9404 26.18 33.031 26.18 34.3695C26.18 35.7079 25.0894 36.7985 23.7509 36.7985Z" fill="#FF4438"/>
<path d="M61 15.5C61 22.4 55.41 28 48.5 28C47.1 28 45.75 27.77 44.5 27.34H44.48C43.81 27.11 43.17 26.83 42.56 26.5C42.52 26.48 42.47 26.45 42.42 26.42C40.84 25.54 39.47 24.33 38.41 22.88C37.8 22.04 37.28 21.13 36.89 20.15C36.32 18.71 36 17.14 36 15.5C36 8.6 41.6 3 48.5 3C55.4 3 61 8.6 61 15.5Z" fill="#FF4438"/>
<path d="M55.2005 16.1766C54.1612 17.3968 53.0428 18.8055 50.7946 18.8055C48.795 18.8055 48.0494 17.1416 47.9929 15.7995C48.4335 16.6647 49.2921 17.3746 50.6252 17.3413C53.2009 17.2637 54.9633 15.0785 54.9633 13.093C54.9633 10.7193 53.0767 9 49.8005 9C47.4507 9 44.5473 9.843 42.6381 11.163C42.6155 12.5273 43.4289 14.302 43.7226 14.1024C45.372 12.9932 46.6825 12.2722 47.9591 11.9061C46.0724 13.8805 41.5536 18.4616 41 19.2713C41.0565 20.0145 42.0393 22 42.5138 22C42.6607 22 42.785 21.9224 42.9318 21.7893C44.2875 20.3473 45.4059 19.0606 46.3887 17.8183C46.5356 19.6374 47.4846 21.8669 50.1507 21.8669C52.5344 21.8669 54.9068 20.2474 55.98 16.5981C56.1156 16.1544 55.5282 15.7995 55.2005 16.1766ZM52.4779 13.2261C52.4779 14.3797 51.2691 14.9454 50.1733 14.9454C49.5858 14.9454 49.134 14.8012 48.7724 14.6126C49.439 13.6809 50.0829 12.7159 50.7833 11.6954C52.0147 11.884 52.4779 12.5273 52.4779 13.2261Z" fill="white"/>
</svg>
