<svg width="33" height="32" viewBox="0 0 33 32" fill="none" xmlns="http://www.w3.org/2000/svg">
<path d="M18.8858 0C19.3608 0 19.7696 0.339879 19.8594 0.80957L20.6758 5.08398C21.9232 5.55023 23.0687 6.22687 24.0703 7.07129L28.1739 5.64062C28.6227 5.48399 29.1191 5.66967 29.3565 6.08398L31.5548 9.91602C31.7924 10.3304 31.7041 10.8558 31.3448 11.1689L28.0508 14.0391C28.1585 14.6766 28.2168 15.3313 28.2169 16C28.2169 16.6684 28.1585 17.3231 28.0508 17.9609L31.3448 20.8311C31.7041 21.144 31.7924 21.6698 31.5548 22.084L29.3565 25.916C29.1191 26.3301 28.6227 26.516 28.1739 26.3594L24.0703 24.9287C23.0687 25.7729 21.9232 26.4498 20.6758 26.916L19.8594 31.1914C19.7695 31.6607 19.3607 32 18.8858 32H14.4892C14.0143 32 13.6055 31.6607 13.5156 31.1914L12.7051 26.9463C11.4352 26.4825 10.2691 25.8011 9.25094 24.9473L5.20111 26.3594C4.75235 26.516 4.25609 26.3301 4.01849 25.916L1.82024 22.084C1.58259 21.6698 1.67091 21.144 2.0302 20.8311L5.25873 18.0176C5.14478 17.362 5.08197 16.6884 5.08197 16C5.08199 15.3113 5.14479 14.6379 5.25873 13.9824L2.0302 11.1689C1.67091 10.8558 1.58259 10.3304 1.82024 9.91602L4.01849 6.08398C4.25609 5.66967 4.75235 5.48399 5.20111 5.64062L9.25094 7.05273C10.2691 6.19872 11.4352 5.51725 12.7051 5.05371L13.5156 0.80957C13.6054 0.339879 14.0142 0 14.4892 0H18.8858ZM13.8701 6.04395L13.1611 6.30273C12.0394 6.71222 11.0074 7.31477 10.1054 8.07129L9.52633 8.55762L5.03217 6.98926L3.10735 10.3438L6.69722 13.4717L6.56928 14.21C6.4676 14.7949 6.41207 15.3922 6.41206 16C6.41206 16.6074 6.46759 17.205 6.56928 17.79L6.69722 18.5283L3.10735 21.6553L5.03217 25.0098L8.81246 23.6914L9.52633 23.4434L10.1054 23.9287C10.8947 24.5905 11.7837 25.134 12.7451 25.5342L13.1611 25.6973L13.8701 25.9561L14.7705 30.6699H18.6045L19.5098 25.9326L20.21 25.6709C21.3119 25.259 22.3263 24.6602 23.2139 23.9121L23.793 23.4229L28.3419 25.0098L30.2667 21.6553L27.1768 18.9639L26.6153 18.4736L26.7393 17.7393C26.8353 17.1704 26.8877 16.5901 26.8877 16C26.8877 15.4095 26.8353 14.8292 26.7393 14.2607L26.6153 13.5264L30.2667 10.3438L28.3419 6.98926L23.793 8.57715L23.2129 8.08789C22.3256 7.33987 21.3119 6.74098 20.21 6.3291L19.5098 6.06738L18.6045 1.33008H14.7705L13.8701 6.04395Z" fill="#091A23"/>
<path d="M16.6875 10C20.0012 10 22.6875 12.6863 22.6875 16C22.6875 19.3137 20.0012 22 16.6875 22C13.3738 22 10.6875 19.3137 10.6875 16C10.6875 12.6863 13.3738 10 16.6875 10ZM16.6875 11.3301C14.1083 11.3301 12.0176 13.4208 12.0176 16C12.0176 18.5792 14.1083 20.6699 16.6875 20.6699C19.2667 20.6699 21.3574 18.5792 21.3574 16C21.3574 13.4208 19.2667 11.3301 16.6875 11.3301Z" fill="#091A23"/>
</svg>
