<svg width="64" height="64" viewBox="0 0 64 64" fill="none" xmlns="http://www.w3.org/2000/svg">
<path d="M35.96 61H28.05C26.72 61 25.57 60.06 25.32 58.77L23.97 51.9C21.97 51.13 20.11 50.08 18.43 48.78L11.66 51.07C10.4 51.49 9.01002 50.98 8.35002 49.85L4.39002 43.15C3.72002 42 3.97002 40.54 4.98002 39.68L10.36 35.13C10.2 34.07 10.12 33.04 10.12 32C10.12 30.96 10.2 29.92 10.36 28.87L4.97002 24.31C3.95002 23.44 3.70002 21.99 4.38002 20.84L8.34002 14.14C9.00002 13.01 10.39 12.5 11.65 12.92L18.43 15.22C20.13 13.91 21.98 12.86 23.97 12.1L25.32 5.23C25.57 3.94 26.72 3 28.05 3H35.96C37.29 3 38.44 3.94 38.69 5.23L40.05 12.16C41.99 12.92 43.81 13.95 45.48 15.25L52.35 12.92C53.61 12.5 55 13.01 55.66 14.14L59.62 20.84C60.29 21.99 60.04 23.45 59.03 24.31L53.53 28.97C53.68 29.98 53.75 31 53.75 32C53.75 33 53.67 34.01 53.53 35.03L59.03 39.69C60.05 40.56 60.29 42.01 59.62 43.16L55.66 49.86C55 50.99 53.61 51.5 52.35 51.08L45.48 48.75C43.81 50.04 41.99 51.08 40.05 51.84L38.69 58.77C38.44 60.06 37.29 61 35.96 61ZM18.82 46.54L19.25 46.89C21.01 48.32 23.01 49.45 25.17 50.22L25.7 50.41L27.27 58.39C27.34 58.75 27.66 59 28.04 59H35.95C36.33 59 36.65 58.74 36.72 58.39L38.3 50.35L38.83 50.16C40.93 49.4 42.89 48.29 44.65 46.86L45.08 46.51L52.99 49.19C53.35 49.31 53.75 49.17 53.94 48.85L57.9 42.15C58.08 41.84 58.01 41.46 57.74 41.22L51.38 35.83L51.48 35.27C51.67 34.18 51.77 33.08 51.77 32.01C51.77 30.94 51.67 29.83 51.49 28.75L51.39 28.19L57.76 22.8C58.04 22.56 58.1 22.18 57.92 21.87L53.96 15.17C53.77 14.85 53.37 14.71 53.01 14.83L45.1 17.51L44.67 17.16C42.91 15.72 40.95 14.61 38.85 13.86L38.32 13.67L36.74 5.63C36.67 5.27 36.35 5.02 35.97 5.02H28.06C27.68 5.02 27.36 5.28 27.29 5.63L25.72 13.61L25.18 13.8C23.04 14.56 21.04 15.68 19.26 17.13L18.83 17.48L11.02 14.83C10.66 14.71 10.26 14.85 10.07 15.17L6.11002 21.87C5.93002 22.18 6.00002 22.56 6.27002 22.8L12.52 28.09L12.42 28.66C12.22 29.8 12.12 30.9 12.12 32.01C12.12 33.12 12.22 34.22 12.42 35.36L12.52 35.93L6.27002 41.22C5.99002 41.46 5.93002 41.84 6.11002 42.15L10.07 48.85C10.26 49.17 10.66 49.31 11.02 49.19L18.83 46.54H18.82Z" fill="white"/>
<path d="M32 41C27.04 41 23 36.96 23 32C23 27.04 27.04 23 32 23C36.96 23 41 27.04 41 32C41 36.96 36.96 41 32 41ZM32 25C28.14 25 25 28.14 25 32C25 35.86 28.14 39 32 39C35.86 39 39 35.86 39 32C39 28.14 35.86 25 32 25Z" fill="white"/>
</svg>
